<svg width="25" height="25" viewBox="0 0 25 25" fill="none" xmlns="http://www.w3.org/2000/svg">
<path fill-rule="evenodd" clip-rule="evenodd" d="M19.6 19.9584C20.19 19.0209 20.41 18.5418 20.86 17.4897C17.54 16.1772 17.01 11.2501 20.29 9.36465C19.29 8.05215 17.88 7.29175 16.55 7.29175C15.59 7.29175 14.93 7.55218 14.34 7.79176C13.84 7.98968 13.39 8.16674 12.83 8.16674C12.23 8.16674 11.7 7.96884 11.14 7.76051C10.53 7.53134 9.89 7.29175 9.09 7.29175C7.6 7.29175 6.01001 8.23967 5.00001 9.86467C3.58001 12.1563 3.83001 16.448 6.12001 20.1147C6.94001 21.4272 8.04001 22.8959 9.47001 22.9167C10.07 22.9272 10.46 22.7397 10.89 22.5418C11.38 22.3126 11.91 22.0626 12.84 22.0626C13.77 22.0522 14.29 22.3126 14.78 22.5418C15.2 22.7397 15.58 22.9272 16.17 22.9167C17.62 22.8959 18.78 21.2709 19.6 19.9584Z" fill="#9FE870"/>
<path fill-rule="evenodd" clip-rule="evenodd" d="M16.34 2.08325C16.5 3.22909 16.05 4.36451 15.46 5.15618C14.83 6.01035 13.73 6.677 12.67 6.63533C12.48 5.53116 12.97 4.39574 13.57 3.63533C14.24 2.80199 15.37 2.15617 16.34 2.08325Z" fill="#9FE870"/>
</svg>
