<svg width="100" height="100" viewBox="0 0 100 100" fill="none" xmlns="http://www.w3.org/2000/svg">
<rect width="100" height="100" rx="50" fill="#C4F2A4"/>
<path d="M60 60H40V57C40 56.45 40.45 56 41 56H59C59.55 56 60 56.45 60 57V60Z" stroke="#484848" stroke-width="1.5" stroke-miterlimit="10" stroke-linecap="round" stroke-linejoin="round"/>
<path opacity="0.4" d="M42 56V49" stroke="#484848" stroke-width="1.5" stroke-miterlimit="10" stroke-linecap="round" stroke-linejoin="round"/>
<path opacity="0.4" d="M46 56V49" stroke="#484848" stroke-width="1.5" stroke-miterlimit="10" stroke-linecap="round" stroke-linejoin="round"/>
<path opacity="0.4" d="M50 56V49" stroke="#484848" stroke-width="1.5" stroke-miterlimit="10" stroke-linecap="round" stroke-linejoin="round"/>
<path opacity="0.4" d="M54 56V49" stroke="#484848" stroke-width="1.5" stroke-miterlimit="10" stroke-linecap="round" stroke-linejoin="round"/>
<path opacity="0.4" d="M58 56V49" stroke="#484848" stroke-width="1.5" stroke-miterlimit="10" stroke-linecap="round" stroke-linejoin="round"/>
<path d="M39 60H61" stroke="#484848" stroke-width="1.5" stroke-miterlimit="10" stroke-linecap="round" stroke-linejoin="round"/>
<path opacity="0.4" d="M50 46.5C50.8284 46.5 51.5 45.8284 51.5 45C51.5 44.1716 50.8284 43.5 50 43.5C49.1716 43.5 48.5 44.1716 48.5 45C48.5 45.8284 49.1716 46.5 50 46.5Z" stroke="#484848" stroke-width="1.5" stroke-miterlimit="10" stroke-linecap="round" stroke-linejoin="round"/>
<path d="M61 48.5H40.5C39.9477 48.5 39.5 48.0523 39.5 47.5V45.5803C39.5 45.2215 39.6923 44.8901 40.0039 44.7121L49.5108 39.2796C49.8145 39.106 50.1868 39.1038 50.4926 39.2736L54.5 41.5" stroke="#484848" stroke-width="1.5"/>
<path opacity="0.4" d="M58 40V43M58 43H55M58 43H61M58 43V46" stroke="#484848" stroke-width="1.5" stroke-linecap="round" stroke-linejoin="round"/>
</svg>
