<svg width="25" height="29" viewBox="0 0 25 29" fill="none" xmlns="http://www.w3.org/2000/svg">
<path d="M21.9 15.6085L19.12 17.2301C18.93 17.3468 18.7 17.3001 18.54 17.1251L16.67 14.9435C16.47 14.7101 16.47 14.3485 16.67 14.1151L18.57 11.8984C18.72 11.7234 18.96 11.6768 19.15 11.7934L21.9 13.4034C22.69 13.8468 22.69 15.1535 21.9 15.6085Z" fill="#9FE870"/>
<path d="M16.8 10.4049C17.11 10.5799 17.17 11.0582 16.93 11.3382L15.26 13.2865L14.55 14.1149C14.35 14.3482 14.04 14.3482 13.84 14.1149L6.7 5.78489C6.3 5.31822 6.77 4.5599 7.28 4.85157L16.8 10.4049Z" fill="#9FE870"/>
<path d="M2.5 24.0082V4.55993C2.5 4.0466 3.03 3.77825 3.35 4.13991L12.12 14.0683C12.33 14.3016 12.32 14.6866 12.11 14.9199L3.34 24.4399C3.02 24.7899 2.5 24.5216 2.5 24.0082Z" fill="#9FE870"/>
<path d="M16.77 18.6066L7.38001 24.0899C6.87001 24.3816 6.40001 23.6233 6.80001 23.1566L13.85 14.9316C14.05 14.6983 14.36 14.6983 14.56 14.9316L16.91 17.6733C17.14 17.9533 17.07 18.4316 16.77 18.6066Z" fill="#9FE870"/>
</svg>
