<svg width="50" height="50" viewBox="0 0 50 50" fill="none" xmlns="http://www.w3.org/2000/svg">
<rect x="0.5" y="0.5" width="49" height="49" rx="24.5" fill="#0C3506"/>
<rect x="0.5" y="0.5" width="49" height="49" rx="24.5" stroke="#9FE870"/>
<path d="M31.1575 16.4036H18.97C17.5461 16.4036 16.3918 17.5579 16.3918 18.9817V31.1692C16.3918 32.5931 17.5461 33.7473 18.97 33.7473H31.1575C32.5813 33.7473 33.7356 32.5931 33.7356 31.1692V18.9817C33.7356 17.5579 32.5813 16.4036 31.1575 16.4036ZM32.7981 31.1692C32.7981 32.0753 32.0636 32.8098 31.1575 32.8098H18.97C18.0639 32.8098 17.3293 32.0753 17.3293 31.1692V18.9817C17.3293 18.0756 18.0639 17.3411 18.97 17.3411H31.1575C32.0636 17.3411 32.7981 18.0756 32.7981 18.9817V31.1692Z" fill="#9FE870"/>
<path d="M25.0637 20.1536C22.3498 20.1536 20.1418 22.3615 20.1418 25.0754C20.1418 27.7893 22.3498 29.9973 25.0637 29.9973C27.7776 29.9973 29.9856 27.7893 29.9856 25.0754C29.9856 22.3615 27.7777 20.1536 25.0637 20.1536ZM25.0637 29.0598C22.8667 29.0598 21.0793 27.2724 21.0793 25.0754C21.0793 22.8784 22.8667 21.0911 25.0637 21.0911C27.2607 21.0911 29.0481 22.8785 29.0481 25.0754C29.0481 27.2724 27.2607 29.0598 25.0637 29.0598Z" fill="#9FE870"/>
<path d="M30.22 18.2786C29.3153 18.2786 28.5793 19.0145 28.5793 19.9192C28.5793 20.8238 29.3153 21.5598 30.22 21.5598C31.1246 21.5598 31.8606 20.8238 31.8606 19.9192C31.8606 19.0145 31.1246 18.2786 30.22 18.2786ZM30.22 20.6223C29.8323 20.6223 29.5168 20.3069 29.5168 19.9192C29.5168 19.5315 29.8323 19.2161 30.22 19.2161C30.6077 19.2161 30.9231 19.5315 30.9231 19.9192C30.9231 20.3069 30.6077 20.6223 30.22 20.6223Z" fill="#9FE870"/>
</svg>
