<svg width="50" height="50" viewBox="0 0 50 50" fill="none" xmlns="http://www.w3.org/2000/svg">
<rect x="0.5" y="0.5" width="49" height="49" rx="24.5" fill="#0C3506"/>
<rect x="0.5" y="0.5" width="49" height="49" rx="24.5" stroke="#9FE870"/>
<g clip-path="url(#clip0_1_191)">
<path d="M20.0781 21.4844H17.2656C16.8773 21.4844 16.5625 21.7991 16.5625 22.1875V33.4375C16.5625 33.8259 16.8773 34.1406 17.2656 34.1406H20.0781C20.4665 34.1406 20.7812 33.8259 20.7812 33.4375V22.1875C20.7812 21.7991 20.4665 21.4844 20.0781 21.4844ZM19.375 32.7344H17.9688V22.8906H19.375V32.7344Z" fill="#9FE870"/>
<path d="M18.6719 15.8594C17.5088 15.8594 16.5625 16.8057 16.5625 17.9688C16.5625 19.1318 17.5088 20.0781 18.6719 20.0781C19.835 20.0781 20.7812 19.1318 20.7812 17.9688C20.7812 16.8057 19.835 15.8594 18.6719 15.8594ZM18.6719 18.6719C18.2842 18.6719 17.9688 18.3564 17.9688 17.9688C17.9688 17.5811 18.2842 17.2656 18.6719 17.2656C19.0595 17.2656 19.375 17.5811 19.375 17.9688C19.375 18.3564 19.0595 18.6719 18.6719 18.6719Z" fill="#9FE870"/>
<path d="M29.6707 21.5277C28.5219 21.3413 27.3459 21.5599 26.4017 22.1061C26.3612 21.756 26.0638 21.4843 25.7031 21.4843H22.8906C22.5023 21.4843 22.1875 21.7991 22.1875 22.1874V33.4374C22.1875 33.8258 22.5023 34.1406 22.8906 34.1406H25.7031C26.0915 34.1406 26.4062 33.8258 26.4062 33.4374V27.1093C26.4062 26.3339 27.037 25.7031 27.8125 25.7031C28.588 25.7031 29.2188 26.3339 29.2188 27.1093V33.4374C29.2188 33.8258 29.5335 34.1406 29.9219 34.1406H32.7344C33.1227 34.1406 33.4375 33.8258 33.4375 33.4374V25.869C33.4375 23.7691 31.9534 21.8981 29.6707 21.5277ZM32.0312 32.7343H30.625V27.1093C30.625 25.5584 29.3634 24.2968 27.8125 24.2968C26.2616 24.2968 25 25.5584 25 27.1093V32.7343H23.5938V22.8906H25V23.5937C25 23.8781 25.1714 24.1344 25.4341 24.2434C25.6967 24.3521 25.9992 24.2919 26.2003 24.0908L26.5282 23.7629C27.2185 23.0728 28.3636 22.7402 29.4454 22.9158C31.1005 23.1845 32.0312 24.507 32.0312 25.869V32.7343Z" fill="#9FE870"/>
<path d="M33.4375 13H16.5625C14.6179 13 13 14.6192 13 16.5625V33.4375C13 35.3821 14.6192 37 16.5625 37H33.4375C35.3821 37 37 35.3808 37 33.4375V16.5625C37 14.6179 35.3808 13 33.4375 13ZM35.5938 33.4375C35.5938 34.6063 34.6063 35.5938 33.4375 35.5938H16.5625C15.3937 35.5938 14.4062 34.6063 14.4062 33.4375V16.5625C14.4062 15.3937 15.3937 14.4062 16.5625 14.4062H33.4375C34.6063 14.4062 35.5938 15.3937 35.5938 16.5625V33.4375Z" fill="#9FE870"/>
</g>
<defs>
<clipPath id="clip0_1_191">
<rect width="24" height="24" fill="white" transform="translate(13 13)"/>
</clipPath>
</defs>
</svg>
