<svg width="187" height="40" viewBox="0 0 187 40" fill="none" xmlns="http://www.w3.org/2000/svg">
<path d="M10.7646 25.2548C9.90405 25.2548 9.12471 25.027 8.42656 24.5714C7.7284 24.1001 7.21697 23.4718 6.89224 22.6863L0 4.51841C0 4.51841 0.146125 4.47914 0.438376 4.40059C0.746863 4.32204 1.12029 4.28277 1.55867 4.28277C2.09446 4.28277 2.65461 4.42415 3.23911 4.70692C3.83985 4.98969 4.3107 5.54737 4.65166 6.37997L10.1314 21.2489C10.2775 21.5317 10.4804 21.673 10.7402 21.673C10.8863 21.673 11.0081 21.6573 11.1055 21.6259C11.2029 21.5945 11.276 21.5081 11.3247 21.3667L16.8531 6.37997C17.1941 5.54737 17.6568 4.98969 18.2413 4.70692C18.842 4.42415 19.4184 4.28277 19.9705 4.28277C20.3926 4.28277 20.7498 4.32204 21.042 4.40059C21.3505 4.47914 21.5048 4.51841 21.5048 4.51841L14.5882 22.6863C14.2797 23.4561 13.7764 24.0766 13.0782 24.5479C12.3963 25.0191 11.6251 25.2548 10.7646 25.2548Z" fill="#0C3506"/>
<path d="M36.9902 25.2783C34.9606 25.2783 33.1178 24.7992 31.4617 23.8409C29.8057 22.8827 28.4824 21.6024 27.492 20C26.5016 18.3819 26.0064 16.5989 26.0064 14.651C26.0064 12.6873 26.5016 10.9043 27.492 9.30191C28.4824 7.69956 29.8057 6.41924 31.4617 5.46097C33.1178 4.5027 34.9606 4.02356 36.9902 4.02356C39.0034 4.02356 40.8381 4.5027 42.4942 5.46097C44.1665 6.41924 45.4979 7.69956 46.4883 9.30191C47.4787 10.9043 47.9739 12.6873 47.9739 14.651C47.9739 16.5989 47.4787 18.3819 46.4883 20C45.4979 21.6024 44.1665 22.8827 42.4942 23.8409C40.8381 24.7992 39.0034 25.2783 36.9902 25.2783ZM36.9902 21.6024C38.971 21.6024 40.6595 20.9269 42.0558 19.5758C43.4684 18.2091 44.1746 16.5675 44.1746 14.651C44.1746 12.7344 43.4684 11.1006 42.0558 9.74963C40.6595 8.38292 38.971 7.69956 36.9902 7.69956C35.0093 7.69956 33.3127 8.38292 31.9001 9.74963C30.5038 11.1006 29.8057 12.7344 29.8057 14.651C29.8057 16.5675 30.5038 18.2091 31.9001 19.5758C33.3127 20.9269 35.0093 21.6024 36.9902 21.6024Z" fill="#0C3506"/>
<path d="M63.2157 25.2548C62.3552 25.2548 61.5759 25.027 60.8777 24.5714C60.1796 24.1001 59.6682 23.4718 59.3434 22.6863L52.4512 4.51841C52.4512 4.51841 52.5973 4.47914 52.8896 4.40059C53.198 4.32204 53.5715 4.28277 54.0099 4.28277C54.5456 4.28277 55.1058 4.42415 55.6903 4.70692C56.291 4.98969 56.7619 5.54737 57.1028 6.37997L62.5825 21.2489C62.7287 21.5317 62.9316 21.673 63.1914 21.673C63.3375 21.673 63.4593 21.6573 63.5567 21.6259C63.6541 21.5945 63.7272 21.5081 63.7759 21.3667L69.3043 6.37997C69.6453 5.54737 70.108 4.98969 70.6925 4.70692C71.2932 4.42415 71.8696 4.28277 72.4216 4.28277C72.8438 4.28277 73.201 4.32204 73.4932 4.40059C73.8017 4.47914 73.956 4.51841 73.956 4.51841L67.0394 22.6863C66.7309 23.4561 66.2276 24.0766 65.5294 24.5479C64.8475 25.0191 64.0763 25.2548 63.2157 25.2548Z" fill="#0C3506"/>
<path d="M89.4413 25.2783C87.4118 25.2783 85.569 24.7992 83.9129 23.8409C82.2568 22.8827 80.9336 21.6024 79.9432 20C78.9528 18.3819 78.4576 16.5989 78.4576 14.651C78.4576 12.6873 78.9528 10.9043 79.9432 9.30191C80.9336 7.69956 82.2568 6.41924 83.9129 5.46097C85.569 4.5027 87.4118 4.02356 89.4413 4.02356C91.4546 4.02356 93.2893 4.5027 94.9454 5.46097C96.6177 6.41924 97.9491 7.69956 98.9395 9.30191C99.9299 10.9043 100.425 12.6873 100.425 14.651C100.425 16.5989 99.9299 18.3819 98.9395 20C97.9491 21.6024 96.6177 22.8827 94.9454 23.8409C93.2893 24.7992 91.4546 25.2783 89.4413 25.2783ZM89.4413 21.6024C91.4221 21.6024 93.1107 20.9269 94.507 19.5758C95.9196 18.2091 96.6258 16.5675 96.6258 14.651C96.6258 12.7344 95.9196 11.1006 94.507 9.74963C93.1107 8.38292 91.4221 7.69956 89.4413 7.69956C87.4605 7.69956 85.7638 8.38292 84.3513 9.74963C82.955 11.1006 82.2568 12.7344 82.2568 14.651C82.2568 16.5675 82.955 18.2091 84.3513 19.5758C85.7638 20.9269 87.4605 21.6024 89.4413 21.6024Z" fill="#0C3506"/>
<path d="M106.364 36V14.651C106.364 12.6873 106.859 10.9043 107.849 9.30191C108.84 7.69956 110.163 6.41924 111.819 5.46097C113.491 4.5027 115.334 4.02356 117.347 4.02356C119.377 4.02356 121.22 4.5027 122.876 5.46097C124.532 6.41924 125.855 7.69956 126.846 9.30191C127.836 10.9043 128.331 12.6873 128.331 14.651C128.331 16.5989 127.836 18.3819 126.846 20C125.855 21.6024 124.532 22.8827 122.876 23.8409C121.22 24.7992 119.377 25.2783 117.347 25.2783C114.993 25.2783 112.874 24.6264 110.991 23.3225C110.991 23.3225 111.105 23.1497 111.332 22.8041C111.559 22.4428 111.916 22.0893 112.403 21.7437C112.891 21.3981 113.516 21.2253 114.279 21.2253C114.652 21.2253 114.961 21.2646 115.204 21.3432C115.464 21.406 115.748 21.4767 116.057 21.5552C116.365 21.6181 116.795 21.6495 117.347 21.6495C119.344 21.6495 121.049 20.9661 122.462 19.5994C123.874 18.2327 124.581 16.5832 124.581 14.651C124.581 12.7187 123.874 11.0692 122.462 9.7025C121.049 8.33579 119.344 7.65243 117.347 7.65243C115.35 7.65243 113.646 8.33579 112.233 9.7025C110.82 11.0692 110.114 12.7187 110.114 14.651V32.7246C110.114 33.5415 109.919 34.1699 109.53 34.6097C109.156 35.0653 108.726 35.3873 108.239 35.5758C107.752 35.7801 107.313 35.8979 106.924 35.9293C106.55 35.9764 106.364 36 106.364 36Z" fill="#0C3506"/>
<path d="M145.01 25.2548C142.997 25.2548 141.154 24.7757 139.481 23.8174C137.825 22.8591 136.502 21.5788 135.512 19.9764C134.521 18.3584 134.026 16.5754 134.026 14.6274C134.026 12.6637 134.521 10.8807 135.512 9.27835C136.502 7.67599 137.825 6.39568 139.481 5.43741C141.154 4.47914 142.997 4 145.01 4C147.039 4 148.882 4.47914 150.538 5.43741C152.194 6.39568 153.518 7.67599 154.508 9.27835C155.498 10.8807 155.994 12.6637 155.994 14.6274V24.972C155.994 24.972 155.799 24.9563 155.409 24.9249C155.036 24.8778 154.605 24.7599 154.118 24.5714C153.631 24.3672 153.193 24.0452 152.803 23.6053C152.43 23.1654 152.243 22.5371 152.243 21.7202V14.6274C152.243 12.6951 151.537 11.0457 150.124 9.67894C148.712 8.31222 147.007 7.62887 145.01 7.62887C143.013 7.62887 141.308 8.31222 139.895 9.67894C138.483 11.0457 137.777 12.6951 137.777 14.6274C137.777 16.5596 138.483 18.2091 139.895 19.5758C141.308 20.9426 143.013 21.6259 145.01 21.6259C145.854 21.6259 146.447 21.5631 146.788 21.4374C147.129 21.296 147.567 21.2253 148.103 21.2253C148.866 21.2253 149.483 21.3981 149.954 21.7437C150.441 22.0893 150.798 22.435 151.025 22.7806C151.253 23.1262 151.366 23.299 151.366 23.299C149.499 24.6028 147.38 25.2548 145.01 25.2548Z" fill="#0C3506"/>
<path d="M165.853 32.6539H160.885C160.885 32.6539 160.901 32.4654 160.934 32.0884C160.982 31.727 161.104 31.3108 161.299 30.8395C161.51 30.3682 161.843 29.944 162.297 29.567C162.752 29.2057 163.401 29.025 164.246 29.025H165.683C166.77 29.025 167.672 28.703 168.386 28.0589C169.1 27.4148 169.717 26.4408 170.237 25.137C168.889 24.7757 167.939 23.9588 167.387 22.6863L160.471 4.51841C160.471 4.51841 160.617 4.47914 160.909 4.40059C161.218 4.32204 161.591 4.28277 162.03 4.28277C162.582 4.28277 163.15 4.42415 163.734 4.70692C164.335 4.98969 164.806 5.54737 165.147 6.37997L170.627 21.2489C170.773 21.5317 170.976 21.673 171.235 21.673C171.544 21.673 171.739 21.5709 171.82 21.3667L177.324 6.37997C177.665 5.54737 178.136 4.98969 178.737 4.70692C179.337 4.42415 179.914 4.28277 180.466 4.28277C180.888 4.28277 181.245 4.32204 181.537 4.40059C181.846 4.47914 182 4.51841 182 4.51841L175.083 22.6863C175.067 22.7491 174.897 23.1811 174.572 23.9823C174.263 24.7835 173.882 25.6789 173.427 26.6686C172.973 27.674 172.526 28.5066 172.088 29.1664C171.276 30.3289 170.383 31.2008 169.409 31.782C168.435 32.3633 167.249 32.6539 165.853 32.6539Z" fill="#0C3506"/>
</svg>
