<svg width="100" height="101" viewBox="0 0 100 101" fill="none" xmlns="http://www.w3.org/2000/svg">
<rect y="0.5" width="100" height="100" rx="50" fill="#9FE870"/>
<path d="M55.2677 47.561L51.0023 50.9953C50.1951 51.6282 49.0635 51.6282 48.2563 50.9953L43.9542 47.561" stroke="#200E32" stroke-width="1.5" stroke-linecap="round" stroke-linejoin="round"/>
<path fill-rule="evenodd" clip-rule="evenodd" d="M44.8879 42H54.3158C55.6752 42.0152 56.969 42.5899 57.896 43.5902C58.823 44.5905 59.3022 45.929 59.222 47.2941V53.822C59.3022 55.1871 58.823 56.5256 57.896 57.5259C56.969 58.5262 55.6752 59.1009 54.3158 59.1161H44.8879C41.968 59.1161 40 56.7407 40 53.822V47.2941C40 44.3754 41.968 42 44.8879 42Z" stroke="#200E32" stroke-width="1.5" stroke-linecap="round" stroke-linejoin="round"/>
</svg>
