<svg width="100" height="101" viewBox="0 0 100 101" fill="none" xmlns="http://www.w3.org/2000/svg">
<rect y="0.5" width="100" height="100" rx="50" fill="#9FE870"/>
<path fill-rule="evenodd" clip-rule="evenodd" d="M40.9903 43.3725C41.3067 42.8488 43.0495 40.9438 44.2932 41.0013C44.665 41.0321 44.9936 41.257 45.2607 41.5178C45.8738 42.1166 47.629 44.381 47.7286 44.8575C47.971 46.0262 46.5783 46.6999 47.0045 47.8778C48.0911 50.5366 49.9634 52.4088 52.6233 53.4943C53.8003 53.9205 54.474 52.5279 55.6428 52.7713C56.1183 52.8709 58.3839 54.626 58.9826 55.2391C59.2425 55.5051 59.4684 55.8347 59.4992 56.2065C59.5454 57.5159 57.5222 59.2833 57.1278 59.5092C56.1974 60.1747 54.9834 60.1634 53.5035 59.4753C49.3739 57.7572 42.7743 51.2822 41.0242 46.9967C40.3546 45.5251 40.3084 44.303 40.9903 43.3725Z" stroke="#200E32" stroke-width="1.5" stroke-linecap="round" stroke-linejoin="round"/>
</svg>
