<svg width="70" height="70" viewBox="0 0 70 70" fill="none" xmlns="http://www.w3.org/2000/svg">
<rect x="0.5" y="0.5" width="69" height="69" rx="9.5" stroke="#484848"/>
<path d="M26.8341 50C26.0485 50.0003 25.337 49.7823 24.6995 49.3459C24.062 48.8945 23.5949 48.2924 23.2982 47.5396L17 30.128C17 30.128 17.1334 30.0903 17.4001 30.0149C17.6817 29.9395 18.0226 29.9017 18.4228 29.9015C18.9119 29.9013 19.4233 30.0366 19.957 30.3074C20.5055 30.5782 20.9355 31.1126 21.247 31.9105L26.2546 46.1605C26.3881 46.4315 26.5734 46.5669 26.8106 46.5668C26.944 46.5668 27.0551 46.5517 27.144 46.5215C27.2329 46.4914 27.2996 46.4085 27.344 46.273L32.1271 32.5788C32.4381 31.7806 33.1185 30.5727 33.652 30.3015C34.2003 30.0302 34.7264 29.8944 35.2303 29.8942C35.6157 29.8941 35.9418 29.9316 36.2086 30.0067C36.4902 30.0819 36.4493 30.1591 36.4493 30.1591L30.3236 47.5365C30.0423 48.2745 29.583 48.8695 28.9459 49.3215C28.3236 49.7735 27.6196 49.9997 26.8341 50Z" fill="#484848"/>
<path d="M27.8411 44.8498L34.2464 26.5624C34.8588 24.8574 35.8239 23.4548 37.1419 22.3547C38.4598 21.2545 39.9523 20.5318 41.6194 20.1865C43.2999 19.846 44.9718 19.9717 46.6351 20.5634C48.3119 21.16 49.685 22.1177 50.7544 23.4365C51.8239 24.7553 52.5179 26.2559 52.8365 27.9382C53.155 29.6206 53.0082 31.3143 52.3958 33.0193C51.7884 34.7107 50.8232 36.1132 49.5004 37.227C48.1825 38.3272 46.6899 39.0499 45.0229 39.3952C43.3558 39.7404 41.6839 39.6148 40.0071 39.0183C38.062 38.3263 36.5148 37.1375 35.3653 35.4518C35.3653 35.4518 35.5131 35.3351 35.8087 35.1019C36.1092 34.8549 36.5145 34.653 37.0247 34.4961C37.5349 34.3392 38.1052 34.3729 38.7357 34.5972C39.0442 34.707 39.2869 34.8317 39.4636 34.9715C39.6586 35.1024 39.8713 35.2473 40.1017 35.4062C40.337 35.5514 40.6826 35.7052 41.1387 35.8674C42.7887 36.4544 44.4103 36.3622 46.0035 35.5907C47.5967 34.8192 48.6946 33.5946 49.2971 31.9169C49.8997 30.2392 49.8306 28.5994 49.0897 26.9975C48.3489 25.3957 47.1535 24.3013 45.5035 23.7143C43.8536 23.1273 42.232 23.2195 40.6388 23.991C39.0455 24.7625 37.9477 25.9871 37.3451 27.6648L31.7091 43.3575C31.4543 44.0668 31.0974 44.5552 30.6383 44.8225C30.1877 45.1083 29.7318 45.2615 29.2706 45.282C28.8045 45.3161 28.4056 45.2896 28.0738 45.2023C27.7506 45.1335 27.8411 44.8498 27.8411 44.8498Z" fill="#484848"/>
</svg>
